<svg width="1111" height="678" viewBox="0 0 1111 678" fill="none" xmlns="http://www.w3.org/2000/svg">
<path d="M564.066 209.746C564.066 325.234 470.444 418.855 354.957 418.855C239.47 418.855 145.848 325.234 145.848 209.746C145.848 203.118 146.166 196.597 146.769 190.146C151.801 136.617 177.259 87.0825 217.854 51.8304C258.45 16.5783 311.064 -1.68266 364.771 0.839849C418.477 3.36236 469.148 26.4745 506.261 65.3765C543.373 104.278 564.076 155.981 564.069 209.746H564.066Z" fill="#E6E6E6" fill-opacity="0.2"/>
<path d="M195.817 634.374C213.167 634.374 227.232 605.676 227.232 570.276C227.232 534.876 213.167 506.178 195.817 506.178C178.467 506.178 164.402 534.876 164.402 570.276C164.402 605.676 178.467 634.374 195.817 634.374Z" fill="#E6E6E6"/>
<path d="M198.717 675.195C186.135 599.706 198.59 524.495 198.717 523.74L201.164 524.155C201.037 524.902 188.654 599.723 201.164 674.788L198.717 675.195Z" fill="#3F3D56"/>
<path d="M223.471 556.491L195.064 571.686L196.235 573.875L224.643 558.681L223.471 556.491Z" fill="#3F3D56"/>
<path d="M166.256 564.102L165.084 566.291L193.488 581.494L194.66 579.305L166.256 564.102Z" fill="#3F3D56"/>
<path d="M829.392 219.74H777.903V397.97H829.392V219.74Z" fill="#3F3D56"/>
<path d="M863.087 363.98L737.858 215L486.486 217.3L334 365.822L337.081 367.803H335.981V676.735H862.744V367.8L863.087 363.98Z" fill="#3F3D56"/>
<path d="M738.445 216L582 399.417V677.417H863.207V364.525L738.445 216Z" fill="#00D38C"/>
<path d="M779.43 464H666V675.956H779.43V464Z" fill="#E6E6E6"/>
<path d="M519.43 447H389V559.956H519.43V447Z" fill="#E6E6E6"/>
<path d="M120.337 596.789C154.271 596.789 181.78 540.66 181.78 471.421C181.78 402.182 154.271 346.053 120.337 346.053C86.403 346.053 58.894 402.182 58.894 471.421C58.894 540.66 86.403 596.789 120.337 596.789Z" fill="#00D38C"/>
<path d="M127.181 676.436C102.605 528.984 126.933 382.069 127.181 380.601L129.628 381.016C129.38 382.479 105.128 528.999 129.628 676.029L127.181 676.436Z" fill="#3F3D56"/>
<path d="M174.989 445.507L119.427 475.227L120.598 477.417L176.16 447.697L174.989 445.507Z" fill="#3F3D56"/>
<path d="M61.9617 460.401L60.79 462.59L116.344 492.325L117.515 490.136L61.9617 460.401Z" fill="#3F3D56"/>
<path d="M265.861 567.524C312.297 567.524 349.941 490.715 349.941 395.966C349.941 301.217 312.297 224.408 265.861 224.408C219.425 224.408 181.781 301.217 181.781 395.966C181.781 490.715 219.425 567.524 265.861 567.524Z" fill="#00D38C"/>
<path d="M275.673 676.436C242.055 474.736 275.334 273.768 275.673 271.761L278.12 272.176C277.781 274.176 244.574 474.749 278.12 676.028L275.673 676.436Z" fill="#3F3D56"/>
<path d="M340.864 360.908L264.832 401.577L266.003 403.766L342.036 363.097L340.864 360.908Z" fill="#3F3D56"/>
<path d="M185.761 381.28L184.589 383.47L260.64 424.169L261.812 421.979L185.761 381.28Z" fill="#3F3D56"/>
<path d="M1111 675.154H0.553955V677.313H1111V675.154Z" fill="#3F3D56"/>
<g class="animate-marker">
<path d="M652.198 199.471C685.877 199.471 713.18 172.169 713.18 138.489C713.18 104.81 685.877 77.5071 652.198 77.5071C618.519 77.5071 591.216 104.81 591.216 138.489C591.216 172.169 618.519 199.471 652.198 199.471Z" fill="#00D38C"/>
<path d="M652.194 237.624L633.125 204.597L614.063 171.571H690.334L671.267 204.598L652.194 237.624Z" fill="#00D38C"/>
<path d="M652.691 159.989C664.775 159.989 674.571 150.193 674.571 138.109C674.571 126.025 664.775 116.229 652.691 116.229C640.607 116.229 630.811 126.025 630.811 138.109C630.811 150.193 640.607 159.989 652.691 159.989Z" fill="white"/>
</g>
</svg>
