<svg width="165" height="51" viewBox="0 0 165 51" fill="none" xmlns="http://www.w3.org/2000/svg">
<path d="M46.25 36H39.5L39.45 23.35C39.45 21.5167 38.8 19.9667 37.5 18.7C36.2333 17.4 34.6833 16.75 32.85 16.75C30.3833 16.75 28.5 17.8 27.2 19.9L27.25 19.95V36H20.5L20.45 23.35C20.45 21.55 19.8 20 18.5 18.7C17.2 17.4 15.65 16.75 13.85 16.75C12.0167 16.75 10.45 17.4 9.15 18.7C7.85 19.9667 7.2 21.5167 7.2 23.35V36H0.45V23.35C0.45 19.6167 1.75 16.4667 4.35 13.9C6.95 11.3 10.1167 10 13.85 10C17.55 10 20.7167 11.3333 23.35 14C25.9833 11.3333 29.15 10 32.85 10C36.5833 10 39.75 11.3 42.35 13.9C44.95 16.4667 46.25 19.6167 46.25 23.35V36ZM76.5176 36.25C76.5176 40.0167 75.2176 43.1833 72.6176 45.75C70.0509 48.3167 66.8842 49.6 63.1176 49.6V42.85C64.9509 42.85 66.5176 42.2 67.8176 40.9C69.1176 39.6333 69.7676 38.0833 69.7676 36.25V35.05C67.7009 36.2167 65.4842 36.8 63.1176 36.8C59.3842 36.8 56.2176 35.5 53.6176 32.9C51.0176 30.3 49.7176 27.1333 49.7176 23.4V10H56.4676L56.5176 23.4C56.5176 25.2333 57.1509 26.8 58.4176 28.1C59.7176 29.4 61.2842 30.05 63.1176 30.05C64.9509 30.05 66.5176 29.4 67.8176 28.1C69.1176 26.8 69.7676 25.2333 69.7676 23.4V10H76.5176V36.25ZM93.391 16.75C91.5577 16.75 89.991 17.4 88.691 18.7C87.391 19.9667 86.741 21.5167 86.741 23.35V36H79.991V23.35C79.991 19.6167 81.291 16.4667 83.891 13.9C86.491 11.3 89.6577 10 93.391 10V16.75ZM123.489 23.35C123.489 24.0167 123.439 24.6833 123.339 25.35H103.789C104.222 26.75 105.022 27.8833 106.189 28.75C107.356 29.5833 108.672 30 110.139 30C112.172 30 113.856 29.2167 115.189 27.65L119.289 33.1C116.722 35.5333 113.672 36.75 110.139 36.75C106.372 36.75 103.189 35.4667 100.589 32.9C98.0224 30.3 96.7391 27.1167 96.7391 23.35C96.7391 19.6167 98.0391 16.4667 100.639 13.9C103.239 11.3 106.406 10 110.139 10C113.872 10 117.022 11.3 119.589 13.9C122.189 16.4667 123.489 19.6167 123.489 23.35ZM115.939 20.3C114.706 17.9333 112.772 16.75 110.139 16.75C107.472 16.75 105.522 17.9333 104.289 20.3H115.939ZM153.763 23.4C153.763 27.1333 152.463 30.3 149.863 32.9C147.296 35.4667 144.146 36.75 140.413 36.75C138.013 36.75 135.796 36.1667 133.763 35V50.35H127.013V23.4C127.013 19.6333 128.296 16.4667 130.863 13.9C133.463 11.3333 136.646 10.05 140.413 10.05C144.146 10.05 147.296 11.35 149.863 13.95C152.463 16.5167 153.763 19.6667 153.763 23.4ZM147.013 23.4C147.013 21.5667 146.363 20.0167 145.063 18.75C143.796 17.45 142.246 16.8 140.413 16.8C138.579 16.8 137.013 17.45 135.713 18.75C134.413 20.0167 133.763 21.5667 133.763 23.4C133.763 25.2333 134.413 26.8 135.713 28.1C137.013 29.3667 138.579 30 140.413 30C142.246 30 143.796 29.3667 145.063 28.1C146.363 26.8 147.013 25.2333 147.013 23.4ZM163.938 26.25H157.188V0.299998H163.938V26.25ZM164.688 32.45C164.688 33.5833 164.305 34.55 163.538 35.35C162.772 36.1167 161.822 36.5 160.688 36.5C159.555 36.5 158.588 36.1167 157.788 35.35C157.022 34.55 156.638 33.5833 156.638 32.45C156.638 31.3167 157.022 30.3667 157.788 29.6C158.588 28.8333 159.555 28.45 160.688 28.45C161.788 28.45 162.722 28.85 163.488 29.65C164.288 30.4167 164.688 31.35 164.688 32.45Z" fill="#00D38C"/>
</svg>
