<svg width="698" height="502" viewBox="0 0 698 502" fill="none" xmlns="http://www.w3.org/2000/svg">
<path d="M66.4419 434.648C66.4419 434.648 -25.3921 392.372 6.86892 363.055C39.1299 333.738 66.4419 434.648 66.4419 434.648Z" fill="#E6E6E6"/>
<path d="M64.845 444.512C64.845 444.512 22.6349 305.823 84.7909 312.456C146.947 319.089 64.845 444.512 64.845 444.512Z" fill="#E6E6E6"/>
<path d="M34.0679 432.212L35.8399 455.412L35.8679 455.812C35.8661 459.435 36.049 463.056 36.4159 466.66C38.8159 490.324 49.1549 501.108 61.2329 501.108C73.3109 501.108 83.1949 490.324 85.5999 466.66C85.9668 463.056 86.1497 459.435 86.1479 455.812L86.1619 455.489L86.1689 455.412L87.9479 432.212H34.0679Z" fill="#E6E6E6"/>
<path d="M86.169 455.412L86.1619 455.489L86.1479 455.812C86.1497 459.435 85.9669 463.056 85.6 466.66H36.4169C36.05 463.056 35.8671 459.435 35.8689 455.812L35.8409 455.412H86.169Z" fill="white"/>
<path d="M665.408 448.836C665.408 448.836 594.308 416.105 619.286 393.408C644.264 370.711 665.408 448.836 665.408 448.836Z" fill="#E6E6E6"/>
<path d="M664.17 456.47C664.17 456.47 631.49 349.094 679.612 354.23C727.734 359.366 664.17 456.47 664.17 456.47Z" fill="#E6E6E6"/>
<path d="M640.342 446.95L641.714 464.912L641.736 465.222C641.735 468.027 641.877 470.831 642.161 473.622C644.022 491.943 652.024 500.292 661.375 500.292C670.726 500.292 678.375 491.943 680.24 473.622C680.524 470.831 680.666 468.027 680.665 465.222L680.676 464.972L680.681 464.912L682.058 446.95H640.342Z" fill="#E6E6E6"/>
<path d="M680.68 464.912L680.675 464.972L680.664 465.222C680.665 468.028 680.523 470.831 680.239 473.622H642.16C641.876 470.831 641.734 468.028 641.735 465.222L641.713 464.912H680.68Z" fill="white"/>
<path d="M221.66 150.304V118.751H216.754V150.304C215.346 150.873 214.181 151.914 213.457 153.249C212.733 154.583 212.495 156.128 212.785 157.618C213.075 159.109 213.875 160.452 215.046 161.417C216.218 162.383 217.689 162.911 219.207 162.911C220.725 162.911 222.196 162.383 223.368 161.417C224.539 160.452 225.338 159.109 225.628 157.618C225.918 156.128 225.681 154.583 224.957 153.249C224.233 151.914 223.067 150.873 221.66 150.304Z" fill="#E6E6E6"/>
<path d="M233.108 468.732H199.577V61.511H186.499V468.732H152.977C149.004 468.731 145.069 469.513 141.398 471.033C137.727 472.553 134.391 474.782 131.581 477.591C128.771 480.4 126.542 483.736 125.021 487.406C123.5 491.077 122.717 495.012 122.717 498.985H263.364C263.364 490.961 260.176 483.265 254.502 477.591C248.829 471.918 241.133 468.73 233.109 468.73L233.108 468.732Z" fill="#E6E6E6"/>
<path d="M122.785 122.021H263.296L254.704 14.621C254.39 10.9178 252.701 7.46612 249.97 4.94504C247.24 2.42396 243.664 1.01597 239.948 0.998047H146.134C142.417 1.01597 138.842 2.42396 136.111 4.94504C133.381 7.46612 131.692 10.9178 131.378 14.621L122.785 122.021Z" fill="#00D38C"/>
<path d="M318.429 310.52C317.107 310.3 315.755 310.345 314.451 310.652C313.147 310.96 311.917 311.523 310.832 312.309C309.747 313.096 308.829 314.09 308.132 315.234C307.435 316.378 306.972 317.65 306.77 318.974L302.814 344.935L316.274 348.505L326.136 324.316C326.71 322.91 326.959 321.394 326.867 319.878C326.775 318.363 326.342 316.888 325.602 315.562C324.862 314.237 323.832 313.095 322.591 312.221C321.349 311.348 319.927 310.765 318.429 310.516V310.52Z" fill="#FFB8B8"/>
<path d="M318.177 344.887C325.647 374.572 322.432 401.723 294.617 423.041C261.255 413.841 239.066 391.656 225.528 359.408C224.687 357.403 224.261 355.248 224.275 353.074C224.289 350.9 224.744 348.751 225.611 346.757C226.479 344.763 227.741 342.966 229.322 341.473C230.904 339.98 232.771 338.823 234.811 338.072C237.877 336.945 241.214 336.778 244.378 337.593C247.541 338.409 250.382 340.168 252.521 342.637L285.255 380.418L300.611 342.318L318.177 344.887Z" fill="#00D38C"/>
<path d="M489.111 500.628C458.649 499.01 439.725 488.55 435.142 467.102L440.048 458.107L496.221 483.697C497.639 484.343 498.833 485.396 499.651 486.722C500.469 488.049 500.875 489.588 500.815 491.146C500.756 492.703 500.235 494.207 499.319 495.468C498.403 496.728 497.132 497.688 495.669 498.224L489.111 500.628Z" fill="#FFB8B8"/>
<path d="M465.573 500.843C449.745 500.364 434.524 500.513 420.101 501.489C417.571 501.662 415.075 500.83 413.154 499.175C411.234 497.519 410.043 495.173 409.841 492.645L408.975 481.821L396.709 462.196L407.339 451.566C425.204 469.358 444.796 484.303 468.065 493.187C468.81 493.701 469.369 494.442 469.659 495.299C469.949 496.156 469.954 497.084 469.674 497.945C469.394 498.805 468.843 499.552 468.104 500.075C467.365 500.597 466.477 500.866 465.572 500.843H465.573Z" fill="#FFB8B8"/>
<path d="M379.538 423.763C359.327 459.927 339.449 484.307 313.303 497.357C281.135 507.974 257.625 493.908 239.303 465.057L292.454 429.895L300.222 437.663L370.622 384.088C372.342 382.46 374.635 381.576 377.002 381.628C379.37 381.681 381.621 382.666 383.267 384.369L443.318 458.106L435.959 470.372L379.538 423.763Z" fill="#2F2E41"/>
<path d="M397.527 466.284L369.727 423.763L376.269 411.497L413.069 449.929L397.527 466.284Z" fill="#2F2E41"/>
<path d="M237.256 330.543C252.61 330.543 265.058 318.096 265.058 302.741C265.058 287.386 252.61 274.939 237.256 274.939C221.901 274.939 209.454 287.386 209.454 302.741C209.454 318.096 221.901 330.543 237.256 330.543Z" fill="#FFB8B8"/>
<path d="M244.615 354.258L213.542 343.628C218.14 336.321 220.156 327.684 219.266 319.097H244.615C243.173 331.573 242.958 343.407 244.615 354.258Z" fill="#FFB8B8"/>
<path d="M310.85 428.67C306.191 430.583 305.85 436.784 301.45 438.891C280.157 449.079 257.63 457.345 242.166 472.008C206.029 447.468 172.534 371.252 215.999 337.908C230.835 346.59 244.088 352.803 243.799 337.908L310.85 428.67Z" fill="#00D38C"/>
<path opacity="0.2" d="M292.043 395.959L276.913 390.646L247.067 413.946L233.688 365.78C232.76 362.439 231.257 364.133 229.097 366.453C226.846 364.371 224.047 362.975 221.029 362.431C218.011 361.888 214.9 362.218 212.064 363.384C209.228 364.55 206.784 366.502 205.021 369.011C203.258 371.52 202.249 374.481 202.113 377.544C200.521 412.482 211.057 442.044 237.257 464.649C271.525 457.312 286.068 434.159 292.044 404.138L290.424 403.058C291.02 400.738 291.56 398.372 292.043 395.959Z" fill="black"/>
<path d="M240.997 266.169C250.168 268.269 260.606 271.233 261.191 273.992C270.625 276.369 277.745 282.063 279.199 290.744C279.32 291.494 279.276 292.262 279.068 292.993C278.861 293.724 278.495 294.401 277.998 294.976C277.501 295.551 276.884 296.01 276.19 296.32C275.496 296.63 274.743 296.785 273.983 296.773C268.853 296.707 261.151 296.216 256.065 294.091C241.292 303.61 238.812 328.368 245.265 345.221L235.112 344.29L224.612 313.542L221.926 343.082L198.758 340.019L201.742 302.351C202.659 293.473 205.68 284.942 210.555 277.466C211.061 276.715 211.615 275.998 212.213 275.318C215.738 271.336 220.275 268.383 225.343 266.773C230.411 265.162 235.82 264.954 240.997 266.17V266.169Z" fill="#2F2E41"/>
<path d="M293.267 359.508L318.712 389.422L356.882 344.378L331.093 313.087L293.267 359.508Z" fill="#3F3D56"/>
<path d="M350.346 345.41L320.087 320.652C321.806 316.526 330.059 317.901 330.059 317.901L353.745 341.914C354.569 342.75 355.275 343.695 355.845 344.721L350.346 345.41Z" fill="#F2F2F2"/>
<path d="M351.721 343.69L317.335 316.87L279.168 374.637L315.1 398.878C318.539 400.253 321.977 397.846 321.977 397.846L357.049 344.205L351.721 343.69Z" fill="#3F3D56"/>
<path d="M326.694 317.562L326.461 317.815L353.67 342.787L353.902 342.533L326.694 317.562Z" fill="#B3B3B3"/>
<path d="M324.429 317.775L324.201 318.033L352.638 343.138L352.865 342.88L324.429 317.775Z" fill="#B3B3B3"/>
<path d="M322.645 318.276L322.425 318.54L351.939 343.135L352.159 342.871L322.645 318.276Z" fill="#B3B3B3"/>
<path d="M307.001 368.29C305.901 367.525 304.66 366.986 303.35 366.704C302.04 366.423 300.687 366.404 299.37 366.65C298.052 366.896 296.797 367.401 295.677 368.136C294.556 368.87 293.593 369.821 292.843 370.931L278.143 392.69L288.773 401.685L308.052 384.059C309.172 383.035 310.048 381.772 310.613 380.363C311.179 378.955 311.42 377.437 311.32 375.922C311.219 374.408 310.778 372.935 310.031 371.614C309.284 370.293 308.249 369.157 307.003 368.29H307.001Z" fill="#FFB8B8"/>
<path d="M292.043 399.232C286.067 429.253 271.525 452.405 237.256 459.743C211.056 437.133 200.52 407.575 202.112 372.638C202.211 370.466 202.749 368.336 203.694 366.377C204.639 364.418 205.971 362.671 207.61 361.242C209.248 359.812 211.16 358.729 213.228 358.058C215.297 357.387 217.48 357.142 219.646 357.338C222.899 357.634 225.986 358.913 228.494 361.006C231.003 363.098 232.815 365.905 233.69 369.052L247.069 417.218L277.269 389.382L292.043 399.232Z" fill="#00D38C"/>
<path d="M359.503 75.826C359.069 75.8266 358.654 75.999 358.347 76.3055C358.041 76.612 357.868 77.0276 357.868 77.461V205.025C357.868 205.459 358.041 205.874 358.347 206.181C358.654 206.487 359.069 206.66 359.503 206.66H465.803C466.236 206.66 466.652 206.487 466.958 206.181C467.265 205.874 467.437 205.459 467.438 205.025V77.461C467.437 77.0276 467.265 76.612 466.958 76.3055C466.652 75.999 466.236 75.8266 465.803 75.826H359.503Z" fill="#E6E6E6"/>
<path d="M370.543 193.986H454.767V88.5011H370.543V193.986Z" fill="white"/>
<path d="M536.483 109.353C536.224 109.353 535.976 109.456 535.793 109.639C535.61 109.822 535.507 110.07 535.507 110.329V173.793C535.507 174.052 535.61 174.3 535.793 174.483C535.976 174.666 536.224 174.769 536.483 174.769H612.64C612.899 174.769 613.147 174.666 613.33 174.483C613.513 174.3 613.616 174.052 613.616 173.793V110.329C613.616 110.07 613.513 109.822 613.33 109.639C613.147 109.456 612.899 109.353 612.64 109.353H536.483Z" fill="#E6E6E6"/>
<path d="M543.074 116.92V167.203H606.05V116.92H543.074Z" fill="white"/>
<path d="M427.527 84.821H397.784C397.065 84.824 396.358 84.6369 395.735 84.2788C395.112 83.9207 394.594 83.4042 394.235 82.7816C393.875 82.159 393.687 81.4525 393.688 80.7337C393.689 80.0148 393.881 79.3091 394.243 78.688L409.114 52.93L409.151 52.867C409.476 52.3187 409.927 51.8552 410.466 51.5144C411.004 51.1736 411.616 50.9651 412.251 50.906H412.273C412.4 50.894 412.529 50.888 412.659 50.888C413.377 50.8837 414.084 51.0707 414.707 51.43C415.329 51.7892 415.844 52.3076 416.2 52.932L431.071 78.688C431.43 79.3096 431.619 80.0146 431.618 80.7323C431.618 81.45 431.429 82.155 431.071 82.7766C430.712 83.3981 430.196 83.9142 429.574 84.2731C428.953 84.632 428.248 84.8209 427.53 84.821H427.527ZM396.963 80.728C396.964 80.8731 397.003 81.0154 397.076 81.141C397.146 81.2666 397.249 81.3708 397.374 81.4428C397.498 81.5148 397.64 81.5518 397.784 81.55H427.527C427.671 81.5518 427.813 81.5148 427.937 81.4428C428.062 81.3708 428.165 81.2666 428.235 81.141C428.307 81.0157 428.346 80.8738 428.348 80.729C428.346 80.5881 428.307 80.4502 428.235 80.329L413.364 54.571C413.292 54.4466 413.189 54.3433 413.065 54.2715C412.94 54.1997 412.799 54.1619 412.655 54.1619C412.512 54.1619 412.371 54.1997 412.246 54.2715C412.122 54.3433 412.019 54.4466 411.947 54.571L397.071 80.324C397 80.4467 396.963 80.5861 396.963 80.728Z" fill="#E6E6E6"/>
<path d="M412.655 58.654C414.01 58.654 415.108 57.5558 415.108 56.201C415.108 54.8463 414.01 53.748 412.655 53.748C411.3 53.748 410.202 54.8463 410.202 56.201C410.202 57.5558 411.3 58.654 412.655 58.654Z" fill="#E6E6E6"/>
<path d="M582.624 111.397H566.499C566.109 111.398 565.726 111.297 565.388 111.103C565.05 110.909 564.77 110.629 564.575 110.291C564.38 109.954 564.278 109.571 564.279 109.181C564.279 108.791 564.383 108.409 564.579 108.072L572.642 94.107L572.662 94.073C572.838 93.776 573.082 93.525 573.374 93.3402C573.666 93.1555 573.997 93.0423 574.341 93.01H574.353C574.422 93.004 574.492 93.001 574.562 93.001C574.952 92.9986 575.335 93.1 575.672 93.2947C576.01 93.4894 576.289 93.7705 576.482 94.109L584.545 108.074C584.739 108.411 584.842 108.793 584.842 109.182C584.842 109.571 584.739 109.954 584.545 110.291C584.35 110.628 584.07 110.907 583.733 111.102C583.396 111.297 583.014 111.399 582.625 111.399L582.624 111.397ZM566.053 109.178C566.054 109.257 566.075 109.334 566.114 109.402C566.152 109.47 566.208 109.526 566.276 109.566C566.343 109.605 566.42 109.625 566.498 109.624H582.624C582.702 109.625 582.779 109.605 582.846 109.566C582.914 109.526 582.97 109.47 583.008 109.402C583.047 109.334 583.068 109.257 583.069 109.178C583.068 109.101 583.047 109.025 583.008 108.959L574.942 94.993C574.903 94.9255 574.847 94.8694 574.78 94.8304C574.712 94.7914 574.636 94.7709 574.558 94.7709C574.48 94.7709 574.404 94.7914 574.336 94.8304C574.269 94.8694 574.213 94.9255 574.174 94.993L566.112 108.958C566.072 109.024 566.051 109.1 566.051 109.177L566.053 109.178Z" fill="#E6E6E6"/>
<path d="M574.562 97.21C575.296 97.21 575.892 96.6146 575.892 95.88C575.892 95.1455 575.296 94.55 574.562 94.55C573.827 94.55 573.232 95.1455 573.232 95.88C573.232 96.6146 573.827 97.21 574.562 97.21Z" fill="#E6E6E6"/>
<path d="M371.507 153.821C372.682 151.123 374.395 148.692 376.541 146.678C378.686 144.664 381.22 143.108 383.987 142.105C386.864 140.994 389.948 140.518 393.026 140.71C396.105 140.902 399.105 141.756 401.823 143.215C408.204 146.602 413.306 151.926 419.786 155.167C426.087 158.289 433.021 159.923 440.054 159.942C448.016 160.004 455.854 157.969 462.781 154.042C463.046 153.87 463.234 153.603 463.307 153.296C463.38 152.989 463.331 152.665 463.172 152.393C463.013 152.12 462.755 151.919 462.451 151.832C462.148 151.745 461.823 151.778 461.543 151.924C455.265 155.442 448.214 157.352 441.019 157.485C433.824 157.617 426.708 155.966 420.305 152.681C413.805 149.272 408.652 143.767 402.029 140.573C399.217 139.209 396.163 138.416 393.042 138.241C389.922 138.066 386.798 138.512 383.851 139.553C380.575 140.652 377.57 142.434 375.034 144.781C372.498 147.129 370.49 149.988 369.142 153.169C368.546 154.63 370.918 155.266 371.507 153.821Z" fill="#E6E6E6"/>
<path d="M369.568 176.751C383.181 173.712 397.303 173.761 410.895 176.894C422.97 179.694 435.434 184.732 447.883 180.975C453.445 179.296 458.542 175.939 461.399 170.775C462.164 169.392 460.046 168.154 459.281 169.537C453.901 179.265 441.297 180.907 431.343 179.31C424.691 178.243 418.281 176.105 411.734 174.574C397.659 171.274 383.018 171.21 368.915 174.387C367.375 174.731 368.027 177.097 369.567 176.753L369.568 176.751Z" fill="#E6E6E6"/>
<path d="M368.688 121.917C381.741 119.698 395.111 120.174 407.973 123.317C419.989 126.261 431.735 132.987 444.441 131.826C450.323 131.288 456.147 129.126 460.141 124.626C461.186 123.449 459.457 121.708 458.406 122.891C454.861 126.643 450.045 128.938 444.898 129.329C439.026 129.956 433.255 128.739 427.666 127.01C421.479 125.096 415.466 122.672 409.178 121.091C395.721 117.712 381.705 117.189 368.034 119.556C366.481 119.821 367.14 122.186 368.686 121.921L368.688 121.917Z" fill="#E6E6E6"/>
<path d="M554.041 116.092C559.681 121.868 563.571 129.121 565.262 137.015C566.562 143.294 566.416 149.787 564.833 156.001C563.251 162.216 560.275 167.988 556.13 172.881C555.114 174.081 556.841 175.821 557.864 174.616C563.511 167.964 567.116 159.822 568.248 151.17C569.073 144.491 568.379 137.712 566.22 131.339C564.06 124.965 560.49 119.161 555.776 114.359C554.668 113.228 552.934 114.963 554.041 116.092Z" fill="#E6E6E6"/>
<path d="M590.847 110.856C583.329 116.37 579.12 125.27 578.528 134.476C577.912 144.054 581.565 153.305 587.447 160.741C590.879 165.023 594.979 168.724 599.589 171.701C600.914 172.568 602.145 170.445 600.827 169.583C593.317 164.669 586.89 157.688 583.477 149.311C581.813 145.332 580.95 141.064 580.938 136.751C580.926 132.438 581.765 128.165 583.406 124.176C585.244 119.733 588.241 115.865 592.085 112.976C593.345 112.052 592.122 109.922 590.847 110.858V110.856Z" fill="#E6E6E6"/>
<path d="M418.379 135.519C424.701 135.519 429.827 130.394 429.827 124.071C429.827 117.748 424.701 112.623 418.379 112.623C412.056 112.623 406.931 117.748 406.931 124.071C406.931 130.394 412.056 135.519 418.379 135.519Z" fill="#E6E6E6"/>
</svg>
